<svg xmlns="http://www.w3.org/2000/svg" xmlns:svg="http://www.w3.org/2000/svg" id="svg3694" width="50mm" height="50mm" enable-background="new" version="1.1" viewBox="0 0 50 50"><defs id="defs3688"><filter style="color-interpolation-filters:sRGB" id="filter5446" height="1.5" y="-.25"><feGaussianBlur id="feGaussianBlur5436" result="result6" stdDeviation="5"/><feComposite id="feComposite5438" in="SourceGraphic" in2="result6" operator="atop" result="result8"/><feComposite id="feComposite5440" in="result8" in2="SourceAlpha" operator="over" result="result9"/><feColorMatrix id="feColorMatrix5442" result="result10" values="1 0 0 0 0 0 1 0 0 0 0 0 1 0 0 0 0 0 1 0"/><feBlend id="feBlend5444" in="result10" in2="result6" mode="normal"/></filter><filter style="color-interpolation-filters:sRGB" id="filter5458" height="1.5" y="-.25"><feGaussianBlur id="feGaussianBlur5448" result="result6" stdDeviation="5"/><feComposite id="feComposite5450" in="SourceGraphic" in2="result6" operator="atop" result="result8"/><feComposite id="feComposite5452" in="result8" in2="SourceAlpha" operator="over" result="result9"/><feColorMatrix id="feColorMatrix5454" result="result10" values="1 0 0 0 0 0 1 0 0 0 0 0 1 0 0 0 0 0 1 0"/><feBlend id="feBlend5456" in="result10" in2="result6" mode="normal"/></filter></defs><metadata id="metadata3691"/><g id="layer1" transform="translate(0,-246.99998)"><path style="fill:none;stroke:#000;stroke-width:.28299001px;stroke-linecap:butt;stroke-linejoin:miter;stroke-opacity:1" id="path3726" d="m 22.798327,251.63676 c -1.322785,-0.019 -2.733734,2.50304 -2.755897,4.84286 -0.02216,2.33982 1.34466,4.49601 2.667722,4.51474 1.323062,0.0187 2.601857,-2.09997 2.623871,-4.43906 0.02202,-2.33909 -1.212912,-4.89957 -2.535696,-4.91854 z"/><path style="fill:none;stroke:#000;stroke-width:.26458332px;stroke-linecap:butt;stroke-linejoin:miter;stroke-opacity:1" id="path3732" d="m 21.960416,248.18436 -3.96875,9.92187 3.439584,5.95313 3.307291,-0.1323 2.248959,-5.29166 -2.513542,-10.45104 z"/><path style="fill:none;stroke:#000;stroke-width:.26458332px;stroke-linecap:butt;stroke-linejoin:miter;stroke-opacity:1" id="path3734" d="m 17.991666,258.10623 -15.213541,15.47813 3.5718749,6.87916 37.0416661,0.13229 3.439584,-6.61458 L 26.9875,258.6354"/><rect style="fill:none;stroke-width:.26458332" id="rect4543" width="2.778" height="4.895" x="6.879" y="257.974"/><rect style="fill:none;stroke-width:.26458332" id="rect4545" width="4.233" height="8.996" x="7.938" y="251.624"/><rect style="fill:none;stroke:#000;stroke-width:.26458332;stroke-opacity:1" id="rect4557" width="5.424" height="19.579" x="16.007" y="264.059"/><rect style="fill:none;stroke:#000;stroke-width:.26458332;stroke-opacity:1" id="rect4557-9" width="5.424" height="19.579" x="25.4" y="263.927"/><path style="fill:#4d4d4d;stroke:#000;stroke-width:.5;stroke-opacity:1" id="path4577" d="m 96.86903,95.222525 v -30.75 h 9.5 9.5 v 30.75 30.750005 h -9.5 -9.5 z" transform="matrix(0.26458333,0,0,0.26458333,0,246.99998)"/><path style="fill:#4d4d4d;stroke:#000;stroke-width:.5;stroke-opacity:1" id="path4579" d="m 61.36903,95.472525 v -30.5 h 9.5 9.5 v 30.5 30.500005 h -9.5 -9.5 z" transform="matrix(0.26458333,0,0,0.26458333,0,246.99998)"/><path style="fill:#ececec;stroke:#000;stroke-width:.5;stroke-opacity:1" id="path4581" d="M 18.039452,113.36356 11.46106,100.7546 22.916087,88.988562 c 25.606117,-26.301335 45.033418,-45.73764 45.245068,-45.266037 0.123415,0.275 2.77724,4.8875 5.897385,10.25 l 5.672985,9.75 -9.931245,0.135353 -9.93125,0.135353 V 94.98288 125.97253 H 42.243437 24.617844 Z" transform="matrix(0.26458333,0,0,0.26458333,0,246.99998)"/><path style="fill:#e6e6e6;stroke:#000;stroke-width:.5;stroke-opacity:1" id="path4583" d="m 137.99403,126.1085 -20.625,-0.14707 V 94.716979 63.472525 h -11 -11 v 31.25 31.250005 h -6.75 -6.75 v -30.470605 -30.4706 l 6.019539,-0.1544 c 4.09541,-0.105046 6.13316,-0.350979 6.375,-0.769389 0.195504,-0.338244 2.042961,-4.669877 4.105461,-9.625853 2.30587,-5.540779 3.97507,-8.926294 4.33446,-8.791261 0.32145,0.120782 16.92874,12.861105 36.9051,28.311829 25.70414,19.880892 36.23833,28.306699 36.03907,28.825969 -0.15486,0.40356 -2.94552,5.83237 -6.20147,12.06403 l -5.91991,11.33028 -2.45363,0.0165 c -1.34949,0.009 -11.73487,-0.0496 -23.07862,-0.13055 z" transform="matrix(0.26458333,0,0,0.26458333,0,246.99998)"/><path style="fill:#999;stroke:#000;stroke-width:.5;stroke-opacity:1" id="path4585" d="M 80.691302,62.363205 C 80.294571,61.73583 77.458818,56.869945 74.389628,51.550123 L 68.809281,41.877721 76.185083,23.425123 83.560885,4.9725254 h 4.120379 c 3.491952,0 4.159968,0.133452 4.37995,0.875 0.967043,3.2598418 8.905816,37.0724256 8.892586,37.8749996 -0.009,0.55 -1.79548,5.1625 -3.96979,10.25 l -3.953292,9.25 -5.809044,0.14068 c -5.578031,0.135085 -5.83773,0.09531 -6.530372,-1 z m 10.000648,-10.945 c 6.364945,-6.110209 7.55274,-19.222316 2.585531,-28.541755 -2.213841,-4.15359 -4.344574,-5.903925 -7.18702,-5.903925 -1.934324,0 -2.552547,0.284617 -4.482636,2.063711 -2.805971,2.586454 -5.011413,7.0114 -6.073781,12.186289 -0.687469,3.348722 -0.728752,4.640241 -0.253554,7.932212 0.881798,6.108716 3.586809,11.068312 7.317231,13.416029 2.381763,1.498947 5.846031,1.00566 8.094229,-1.152561 z" transform="matrix(0.26458333,0,0,0.26458333,0,246.99998)"/><path style="fill:maroon;stroke:#000;stroke-width:.5;stroke-opacity:1" id="path4587" d="M 82.983692,50.971718 C 78.279419,48.103515 75.511852,38.965805 77.077908,31.472525 79.220284,21.221661 85.080312,15.76073 89.353005,20.033423 c 3.689421,3.689421 5.744595,10.313988 5.38713,17.36466 -0.213011,4.201452 -0.433971,5.061874 -2.179076,8.485345 -2.906873,5.702575 -5.932968,7.310288 -9.577367,5.08829 z" transform="matrix(0.26458333,0,0,0.26458333,0,246.99998)"/><path style="fill:navy;stroke:#000;stroke-width:.5;stroke-opacity:1" id="path4591" d="m 82.825676,50.332801 c -2.290294,-1.543429 -4.693169,-6.333872 -5.461285,-10.887777 -0.521919,-3.094288 -0.495081,-4.277142 0.174469,-7.689645 1.417836,-7.226294 5.172117,-12.782854 8.636714,-12.782854 2.888797,0 6.608564,5.675836 7.755037,11.833083 0.298719,1.604305 0.448529,4.751687 0.332911,6.994183 -0.170735,3.31151 -0.511166,4.688582 -1.812626,7.332223 -1.872142,3.80286 -4.483759,6.340511 -6.525322,6.340511 -0.774763,0 -2.169717,-0.512876 -3.099898,-1.139724 z" transform="matrix(0.26458333,0,0,0.26458333,0,246.99998)"/><path style="fill:maroon;stroke:#000;stroke-width:.5;stroke-opacity:1;filter:url(#filter5458)" id="path4593" d="m 61.36903,132.72253 v -5.25 h 9.5 9.5 v 5.25 5.25 h -9.5 -9.5 z" transform="matrix(0.26458333,0,0,0.26458333,0,246.99998)"/><path style="fill:maroon;stroke:#000;stroke-width:.5;stroke-opacity:1;filter:url(#filter5446)" id="path4595" d="m 96.86903,132.47253 v -5 h 9.5 9.5 v 5 5 h -9.5 -9.5 z" transform="matrix(0.26458333,0,0,0.26458333,0,246.99998)"/></g></svg>